<?xml version="1.0" encoding="iso-8859-1"?>
<!-- Generator: Adobe Illustrator 19.0.0, SVG Export Plug-In . SVG Version: 6.00 Build 0)  -->
<svg version="1.1" id="Layer_1" xmlns="http://www.w3.org/2000/svg" xmlns:xlink="http://www.w3.org/1999/xlink" x="0px" y="0px"
	 viewBox="0 0 512 512" style="enable-background:new 0 0 512 512;" xml:space="preserve">
<polygon style="fill:#A05755;" points="362.222,503.148 149.777,503.148 202.888,237.591 309.111,237.591 "/>
<polygon style="fill:#AF6964;" points="309.111,503.148 202.888,503.148 229.444,237.591 282.555,237.591 "/>
<path style="fill:#5B5D6E;" d="M273.703,503.148h-35.408v-48.685c0-2.444,1.982-4.426,4.426-4.426h26.556
	c2.444,0,4.426,1.982,4.426,4.426L273.703,503.148L273.703,503.148z"/>
<polygon style="fill:#AF6964;" points="345.451,419.287 309.111,237.591 202.888,237.591 166.549,419.287 "/>
<polygon style="fill:#B97772;" points="300.725,419.287 282.555,237.591 229.444,237.591 211.275,419.287 "/>
<path style="fill:#8F96AC;" d="M202.888,237.591v-11.154c0-4.226,1.511-8.313,4.262-11.522l35.408-41.309
	c7.066-8.243,19.818-8.243,26.883,0l35.408,41.309c2.751,3.209,4.262,7.295,4.262,11.522v11.154L202.888,237.591L202.888,237.591z"
	/>
<path style="fill:#A05755;" d="M313.537,246.443H198.462c-2.444,0-4.426-1.982-4.426-4.426v-8.852c0-2.444,1.982-4.426,4.426-4.426
	h115.075c2.444,0,4.426,1.982,4.426,4.426v8.852C317.963,244.461,315.982,246.443,313.537,246.443z"/>
<g>
	<path style="fill:#F0DCBE;" d="M80.742,27.63l143.963,143.963l25.037-25.037c3.457-3.457,3.457-9.062,0-12.519L118.297,2.593
		c-3.457-3.457-9.062-3.457-12.519,0L80.742,27.63z"/>
	<path style="fill:#F0DCBE;" d="M431.258,378.147L287.296,234.185l-25.036,25.037c-3.457,3.457-3.457,9.062,0,12.519
		l131.444,131.444c3.457,3.457,9.062,3.457,12.519,0L431.258,378.147z"/>
	<path style="fill:#F0DCBE;" d="M431.258,27.63L287.296,171.592l25.037,25.037c3.457,3.457,9.062,3.457,12.519,0L456.296,65.185
		c3.457-3.457,3.457-9.062,0-12.519L431.258,27.63z"/>
	<path style="fill:#F0DCBE;" d="M80.742,378.147l143.963-143.963l-25.037-25.037c-3.457-3.457-9.062-3.457-12.519,0L55.704,340.592
		c-3.457,3.457-3.457,9.062,0,12.519L80.742,378.147z"/>
</g>
<g>
	<path style="fill:#DEC3A1;" d="M425,384.406L74.482,33.888c-3.457-3.457-3.457-9.062,0-12.519l0,0
		c3.457-3.457,9.062-3.457,12.519,0l350.518,350.518c3.457,3.457,3.457,9.061,0,12.519l0,0
		C434.061,387.863,428.457,387.863,425,384.406z"/>
	<path style="fill:#DEC3A1;" d="M437.518,33.888L87,384.406c-3.457,3.457-9.062,3.457-12.519,0l0,0
		c-3.457-3.457-3.457-9.062,0-12.519L425,21.371c3.457-3.457,9.061-3.457,12.519,0l0,0
		C440.974,24.827,440.974,30.432,437.518,33.888z"/>
</g>
<circle style="fill:#707487;" cx="256" cy="202.18" r="17.704"/>
<path style="fill:#8F96AC;" d="M384.352,512H127.647c-2.444,0-4.426-1.982-4.426-4.426v-8.852c0-2.444,1.982-4.426,4.426-4.426
	h256.705c2.444,0,4.426,1.982,4.426,4.426v8.852C388.778,510.018,386.797,512,384.352,512z"/>
<path style="fill:#A05755;" d="M348.945,432.333h-185.89c-2.444,0-4.426-1.982-4.426-4.426v-8.852c0-2.444,1.982-4.426,4.426-4.426
	h185.89c2.444,0,4.426,1.982,4.426,4.426v8.852C353.37,430.351,351.39,432.333,348.945,432.333z"/>
<path style="fill:#707487;" d="M264.851,295.128v26.556c0,2.444-1.982,4.426-4.426,4.426h-8.852c-2.444,0-4.426-1.982-4.426-4.426
	v-26.556c0-2.444,1.982-4.426,4.426-4.426h8.852C262.871,290.702,264.851,292.684,264.851,295.128z"/>
<path style="fill:#5B5D6E;" d="M264.851,295.128v13.278h-17.704v-13.278c0-2.444,1.982-4.426,4.426-4.426h8.852
	C262.871,290.702,264.851,292.684,264.851,295.128z"/>
<path style="fill:#707487;" d="M264.851,357.092v26.556c0,2.444-1.982,4.426-4.426,4.426h-8.852c-2.444,0-4.426-1.982-4.426-4.426
	v-26.556c0-2.444,1.982-4.426,4.426-4.426h8.852C262.871,352.666,264.851,354.647,264.851,357.092z"/>
<path style="fill:#5B5D6E;" d="M264.851,357.092v13.278h-17.704v-13.278c0-2.444,1.982-4.426,4.426-4.426h8.852
	C262.871,352.666,264.851,354.647,264.851,357.092z"/>
<g>
</g>
<g>
</g>
<g>
</g>
<g>
</g>
<g>
</g>
<g>
</g>
<g>
</g>
<g>
</g>
<g>
</g>
<g>
</g>
<g>
</g>
<g>
</g>
<g>
</g>
<g>
</g>
<g>
</g>
</svg>
